<svg width="8" height="8" viewBox="0 0 8 8" fill="none" xmlns="http://www.w3.org/2000/svg">
<path d="M-0.000781238 1.70014C-0.000781238 2.01347 0.0692188 2.30014 0.209219 2.56014C0.355885 2.81347 0.559219 3.0168 0.819219 3.17014C1.07922 3.32347 1.37255 3.40014 1.69922 3.40014C2.03922 3.40014 2.33589 3.32347 2.58922 3.17014C2.84922 3.0168 3.04922 2.81347 3.18922 2.56014C3.33589 2.30014 3.40922 2.01347 3.40922 1.70014C3.40922 1.3868 3.33589 1.10347 3.18922 0.850137C3.04922 0.590136 2.84922 0.38347 2.58922 0.230136C2.33589 0.0768029 2.03922 0.000136256 1.69922 0.000136256C1.37255 0.000136256 1.07922 0.0768029 0.819219 0.230136C0.559219 0.38347 0.355885 0.590136 0.209219 0.850137C0.0692188 1.10347 -0.000781238 1.3868 -0.000781238 1.70014ZM0.929219 1.70014C0.929219 1.5468 0.959219 1.4068 1.01922 1.28014C1.08589 1.15347 1.17589 1.05347 1.28922 0.980136C1.40922 0.906803 1.54589 0.870136 1.69922 0.870136C1.86589 0.870136 2.00589 0.906803 2.11922 0.980136C2.23255 1.05347 2.32255 1.15347 2.38922 1.28014C2.45589 1.4068 2.48922 1.5468 2.48922 1.70014C2.48922 1.8468 2.45589 1.9868 2.38922 2.12014C2.32255 2.2468 2.23255 2.35014 2.11922 2.43014C2.00589 2.50347 1.86589 2.54014 1.69922 2.54014C1.54589 2.54014 1.40922 2.50347 1.28922 2.43014C1.17589 2.35014 1.08589 2.2468 1.01922 2.12014C0.959219 1.9868 0.929219 1.8468 0.929219 1.70014ZM4.17922 5.57014C4.17922 5.88347 4.24922 6.17014 4.38922 6.43014C4.53589 6.69014 4.73922 6.8968 4.99922 7.05014C5.25922 7.1968 5.55255 7.27014 5.87922 7.27014C6.21922 7.27014 6.51589 7.1968 6.76922 7.05014C7.02255 6.8968 7.22255 6.69014 7.36922 6.43014C7.51589 6.17014 7.58922 5.88347 7.58922 5.57014C7.58922 5.2568 7.51589 4.97347 7.36922 4.72014C7.22255 4.46014 7.02255 4.25347 6.76922 4.10014C6.51589 3.9468 6.21922 3.87014 5.87922 3.87014C5.55255 3.87014 5.25922 3.9468 4.99922 4.10014C4.73922 4.25347 4.53589 4.46014 4.38922 4.72014C4.24922 4.97347 4.17922 5.2568 4.17922 5.57014ZM5.09922 5.57014C5.09922 5.4168 5.12922 5.28014 5.18922 5.16014C5.25589 5.03347 5.34589 4.93347 5.45922 4.86014C5.57922 4.78014 5.71922 4.74014 5.87922 4.74014C6.04589 4.74014 6.18589 4.78014 6.29922 4.86014C6.41255 4.93347 6.49922 5.03347 6.55922 5.16014C6.62589 5.2868 6.65922 5.42347 6.65922 5.57014C6.65922 5.7168 6.62589 5.8568 6.55922 5.99014C6.49922 6.1168 6.41255 6.22014 6.29922 6.30014C6.18589 6.37347 6.04589 6.41014 5.87922 6.41014C5.71922 6.41014 5.57922 6.37347 5.45922 6.30014C5.34589 6.22014 5.25589 6.1168 5.18922 5.99014C5.12922 5.8568 5.09922 5.7168 5.09922 5.57014ZM5.67922 0.140136L0.829219 7.14014H1.90922L6.75922 0.140136H5.67922Z" fill="white"/>
</svg>
