<svg width="20" height="20" viewBox="0 0 20 20" fill="none" xmlns="http://www.w3.org/2000/svg">
<g clip-path="url(#clip0_37854_10915)">
<path d="M11.9043 1.62231C12.2008 1.4929 12.5463 1.6286 12.6758 1.92505L14.7646 6.70728H18.6162C19.0429 6.70734 19.4391 6.89759 19.7031 7.22876C19.9623 7.55397 20.0581 7.97235 19.9658 8.37622L17.9082 17.3606C17.7646 17.9879 17.2096 18.426 16.5586 18.426H3.44141C2.79043 18.426 2.23543 17.9879 2.0918 17.3606L0.0341797 8.37622C-0.0581246 7.97236 0.0377039 7.55396 0.296875 7.22876C0.560928 6.89756 0.957159 6.70735 1.38379 6.70728H5.23535L7.32422 1.92505C7.45368 1.62852 7.79923 1.49291 8.0957 1.62231C8.39216 1.7518 8.52769 2.09731 8.39844 2.3938L6.51465 6.70728H13.4854L11.6016 2.3938C11.4723 2.09731 11.6078 1.75176 11.9043 1.62231ZM1.38379 7.87915C1.29081 7.87924 1.23662 7.92941 1.21289 7.95923C1.18729 7.99131 1.16064 8.04505 1.17676 8.11548L3.2334 17.0989C3.25398 17.1888 3.34191 17.2542 3.44141 17.2542H16.5586C16.6579 17.2542 16.7458 17.1895 16.7666 17.0999L18.8232 8.11548C18.8394 8.04509 18.8127 7.99134 18.7871 7.95923C18.7634 7.9294 18.7092 7.8792 18.6162 7.87915H15.2764L15.4297 8.23071C15.5592 8.52728 15.4235 8.8727 15.127 9.0022C15.0506 9.03555 14.9708 9.052 14.8926 9.052C14.6669 9.05187 14.4516 8.92041 14.3555 8.70044L13.9971 7.87915H6.00293L5.64453 8.70044C5.54834 8.92038 5.33309 9.0519 5.10742 9.052C5.0291 9.052 4.94938 9.03556 4.87305 9.0022C4.57651 8.87265 4.44083 8.52726 4.57031 8.23071L4.72363 7.87915H1.38379Z" fill="#6F73EE"/>
<path d="M11.9043 1.62231C12.2008 1.4929 12.5463 1.6286 12.6758 1.92505L14.7646 6.70728H18.6162C19.0429 6.70734 19.4391 6.89759 19.7031 7.22876C19.9623 7.55397 20.0581 7.97235 19.9658 8.37622L17.9082 17.3606C17.7646 17.9879 17.2096 18.426 16.5586 18.426H3.44141C2.79043 18.426 2.23543 17.9879 2.0918 17.3606L0.0341797 8.37622C-0.0581246 7.97236 0.0377039 7.55396 0.296875 7.22876C0.560928 6.89756 0.957159 6.70735 1.38379 6.70728H5.23535L7.32422 1.92505C7.45368 1.62852 7.79923 1.49291 8.0957 1.62231C8.39216 1.7518 8.52769 2.09731 8.39844 2.3938L6.51465 6.70728H13.4854L11.6016 2.3938C11.4723 2.09731 11.6078 1.75176 11.9043 1.62231ZM1.38379 7.87915C1.29081 7.87924 1.23662 7.92941 1.21289 7.95923C1.18729 7.99131 1.16064 8.04505 1.17676 8.11548L3.2334 17.0989C3.25398 17.1888 3.34191 17.2542 3.44141 17.2542H16.5586C16.6579 17.2542 16.7458 17.1895 16.7666 17.0999L18.8232 8.11548C18.8394 8.04509 18.8127 7.99134 18.7871 7.95923C18.7634 7.9294 18.7092 7.8792 18.6162 7.87915H15.2764L15.4297 8.23071C15.5592 8.52728 15.4235 8.8727 15.127 9.0022C15.0506 9.03555 14.9708 9.052 14.8926 9.052C14.6669 9.05187 14.4516 8.92041 14.3555 8.70044L13.9971 7.87915H6.00293L5.64453 8.70044C5.54834 8.92038 5.33309 9.0519 5.10742 9.052C5.0291 9.052 4.94938 9.03556 4.87305 9.0022C4.57651 8.87265 4.44083 8.52726 4.57031 8.23071L4.72363 7.87915H1.38379Z" stroke="#6F73EE"/>
<path d="M6.48438 10.4189C6.80801 10.4189 7.07031 10.6813 7.07031 11.0049V15.3018C7.07031 15.6254 6.80797 15.8877 6.48438 15.8877C6.16078 15.8877 5.89844 15.6254 5.89844 15.3018V11.0049C5.89844 10.6813 6.16078 10.4189 6.48438 10.4189Z" fill="#6F73EE"/>
<path d="M6.48438 10.4189C6.80801 10.4189 7.07031 10.6813 7.07031 11.0049V15.3018C7.07031 15.6254 6.80797 15.8877 6.48438 15.8877C6.16078 15.8877 5.89844 15.6254 5.89844 15.3018V11.0049C5.89844 10.6813 6.16078 10.4189 6.48438 10.4189Z" stroke="#6F73EE"/>
<path d="M10 10.4189C10.3236 10.4189 10.5859 10.6813 10.5859 11.0049V15.3018C10.5859 15.6254 10.3236 15.8877 10 15.8877C9.67641 15.8877 9.41406 15.6254 9.41406 15.3018V11.0049C9.41406 10.6813 9.67641 10.4189 10 10.4189Z" fill="#6F73EE"/>
<path d="M10 10.4189C10.3236 10.4189 10.5859 10.6813 10.5859 11.0049V15.3018C10.5859 15.6254 10.3236 15.8877 10 15.8877C9.67641 15.8877 9.41406 15.6254 9.41406 15.3018V11.0049C9.41406 10.6813 9.67641 10.4189 10 10.4189Z" stroke="#6F73EE"/>
<path d="M13.5156 10.4189C13.8392 10.4189 14.1015 10.6813 14.1016 11.0049V15.3018C14.1016 15.6254 13.8392 15.8877 13.5156 15.8877C13.192 15.8877 12.9297 15.6254 12.9297 15.3018V11.0049C12.9297 10.6813 13.192 10.4189 13.5156 10.4189Z" fill="#6F73EE"/>
<path d="M13.5156 10.4189C13.8392 10.4189 14.1015 10.6813 14.1016 11.0049V15.3018C14.1016 15.6254 13.8392 15.8877 13.5156 15.8877C13.192 15.8877 12.9297 15.6254 12.9297 15.3018V11.0049C12.9297 10.6813 13.192 10.4189 13.5156 10.4189Z" stroke="#6F73EE"/>
</g>
<defs>
<clipPath id="clip0_37854_10915">
<rect width="20" height="20" fill="white"/>
</clipPath>
</defs>
</svg>
